<mxfile host="app.diagrams.net" modified="2022-03-31T13:07:58.103Z" agent="5.0 (Windows NT 10.0; Win64; x64) AppleWebKit/537.36 (KHTML, like Gecko) Chrome/99.0.4844.84 Safari/537.36" etag="re5lhsVRuIhQOIAFr-BL" version="17.3.0" type="github">
  <diagram id="CT7mAA3saar8GgUIyssQ" name="Page-1">
    <mxGraphModel dx="1422" dy="794" grid="1" gridSize="10" guides="1" tooltips="1" connect="1" arrows="1" fold="1" page="1" pageScale="1" pageWidth="850" pageHeight="1100" math="0" shadow="0">
      <root>
        <mxCell id="0" />
        <mxCell id="1" parent="0" />
        <mxCell id="zya2DXrz7ZlzBOJnZvWj-1" value="" style="html=1;verticalLabelPosition=bottom;labelBackgroundColor=#ffffff;verticalAlign=top;shadow=0;dashed=0;strokeWidth=1;shape=mxgraph.ios7.misc.iphone;" parent="1" vertex="1">
          <mxGeometry x="270" y="90" width="200" height="400" as="geometry" />
        </mxCell>
        <mxCell id="zya2DXrz7ZlzBOJnZvWj-2" value="subscribe" style="rounded=1;whiteSpace=wrap;html=1;fillColor=#d5e8d4;strokeColor=#82b366;" parent="1" vertex="1">
          <mxGeometry x="320" y="370" width="100" height="40" as="geometry" />
        </mxCell>
        <mxCell id="zya2DXrz7ZlzBOJnZvWj-3" value="" style="fillColor=#36B37E;strokeColor=none;rounded=1;arcSize=50;sketch=0;hachureGap=4;pointerEvents=0;fontFamily=Architects Daughter;fontSource=https%3A%2F%2Ffonts.googleapis.com%2Fcss%3Ffamily%3DArchitects%2BDaughter;fontSize=20;" parent="1" vertex="1">
          <mxGeometry x="344" y="150" width="45" height="30" as="geometry" />
        </mxCell>
        <mxCell id="zya2DXrz7ZlzBOJnZvWj-4" value="" style="shape=ellipse;strokeColor=none;fillColor=#ffffff;sketch=0;hachureGap=4;pointerEvents=0;fontFamily=Architects Daughter;fontSource=https%3A%2F%2Ffonts.googleapis.com%2Fcss%3Ffamily%3DArchitects%2BDaughter;fontSize=20;" parent="zya2DXrz7ZlzBOJnZvWj-3" vertex="1">
          <mxGeometry x="1" y="0.5" width="16" height="16" relative="1" as="geometry">
            <mxPoint x="-18" y="-8" as="offset" />
          </mxGeometry>
        </mxCell>
        <mxCell id="zya2DXrz7ZlzBOJnZvWj-5" value="" style="html=1;shadow=0;dashed=0;shape=mxgraph.atlassian.check;strokeColor=#ffffff;strokeWidth=2;sketch=1;hachureGap=4;pointerEvents=0;fontFamily=Architects Daughter;fontSource=https%3A%2F%2Ffonts.googleapis.com%2Fcss%3Ffamily%3DArchitects%2BDaughter;fontSize=20;" parent="zya2DXrz7ZlzBOJnZvWj-3" vertex="1">
          <mxGeometry y="0.5" width="10" height="8" relative="1" as="geometry">
            <mxPoint x="6" y="-5" as="offset" />
          </mxGeometry>
        </mxCell>
        <mxCell id="zya2DXrz7ZlzBOJnZvWj-7" value="&lt;ul&gt;&lt;li&gt;&lt;span&gt;Unlimited access to all beautiful spots&lt;/span&gt;&lt;/li&gt;&lt;li&gt;All filters in-app&lt;/li&gt;&lt;li&gt;Ad-free&amp;nbsp;&lt;/li&gt;&lt;/ul&gt;" style="text;strokeColor=none;fillColor=none;html=1;whiteSpace=wrap;verticalAlign=middle;overflow=hidden;" parent="1" vertex="1">
          <mxGeometry x="260" y="230" width="200" height="100" as="geometry" />
        </mxCell>
        <mxCell id="zya2DXrz7ZlzBOJnZvWj-8" value="&lt;b&gt;&lt;font style=&quot;font-size: 13px&quot;&gt;Get your 50% off with welcome bonus on yearly subscription&lt;/font&gt;&lt;/b&gt;" style="rounded=1;whiteSpace=wrap;html=1;fillColor=#f8cecc;strokeColor=#b85450;" parent="1" vertex="1">
          <mxGeometry x="303" y="200" width="137" height="50" as="geometry" />
        </mxCell>
        <mxCell id="Mrl8cDiGITw5wIeOmt_e-1" value="Terms of Use| Privacy Policy| Restore" style="text;strokeColor=none;fillColor=none;spacingLeft=4;spacingRight=4;overflow=hidden;rotatable=0;points=[[0,0.5],[1,0.5]];portConstraint=eastwest;fontSize=10;" vertex="1" parent="1">
          <mxGeometry x="280" y="410" width="210" height="30" as="geometry" />
        </mxCell>
        <mxCell id="zya2DXrz7ZlzBOJnZvWj-6" value="m/y" style="text;strokeColor=none;fillColor=none;html=1;fontSize=24;fontStyle=1;verticalAlign=middle;align=center;" parent="1" vertex="1">
          <mxGeometry x="344" y="180" width="45" height="10" as="geometry" />
        </mxCell>
        <mxCell id="Mrl8cDiGITw5wIeOmt_e-6" value="Start 3-day freeÂ trial&#xa;then $9.99 per month" style="text;strokeColor=#82b366;fillColor=#d5e8d4;spacingLeft=4;spacingRight=4;overflow=hidden;rotatable=0;points=[[0,0.5],[1,0.5]];portConstraint=eastwest;fontSize=12;" vertex="1" parent="1">
          <mxGeometry x="303.25" y="320" width="133.5" height="40" as="geometry" />
        </mxCell>
      </root>
    </mxGraphModel>
  </diagram>
</mxfile>
